<mxfile host="app.diagrams.net" modified="2023-09-15T13:06:38.162Z" agent="Mozilla/5.0 (Windows NT 10.0; Win64; x64) AppleWebKit/537.36 (KHTML, like Gecko) Chrome/116.0.0.0 Safari/537.36" etag="vVJ57oM6NNr9OgCbMMwf" version="21.7.5" type="device">
  <diagram name="Page-1" id="dIjUKbUhKajkwpxZUrFb">
    <mxGraphModel dx="644" dy="1030" grid="1" gridSize="10" guides="1" tooltips="1" connect="1" arrows="1" fold="1" page="1" pageScale="1" pageWidth="827" pageHeight="1169" math="0" shadow="0">
      <root>
        <mxCell id="0" />
        <mxCell id="1" parent="0" />
        <mxCell id="ycLoNEdC7tj26TH-Vazr-1" value="I" style="ellipse;whiteSpace=wrap;html=1;" parent="1" vertex="1">
          <mxGeometry x="384" width="60" height="50" as="geometry" />
        </mxCell>
        <mxCell id="ycLoNEdC7tj26TH-Vazr-2" value="F" style="ellipse;whiteSpace=wrap;html=1;" parent="1" vertex="1">
          <mxGeometry x="384" y="810" width="36" height="30" as="geometry" />
        </mxCell>
        <mxCell id="ycLoNEdC7tj26TH-Vazr-3" value="int legajoAlumno, codigoCarrera, codigoMateria, codigoCarreraActual;&amp;nbsp;" style="rounded=0;whiteSpace=wrap;html=1;" parent="1" vertex="1">
          <mxGeometry x="196" y="60" width="436" height="20" as="geometry" />
        </mxCell>
        <mxCell id="ycLoNEdC7tj26TH-Vazr-4" value="" style="endArrow=none;html=1;rounded=0;entryX=0.5;entryY=1;entryDx=0;entryDy=0;exitX=0.5;exitY=0;exitDx=0;exitDy=0;" parent="1" source="ycLoNEdC7tj26TH-Vazr-3" target="ycLoNEdC7tj26TH-Vazr-1" edge="1">
          <mxGeometry width="50" height="50" relative="1" as="geometry">
            <mxPoint x="410" y="80" as="sourcePoint" />
            <mxPoint x="440" y="130" as="targetPoint" />
          </mxGeometry>
        </mxCell>
        <mxCell id="ycLoNEdC7tj26TH-Vazr-8" value="char modalidad, horario;" style="rounded=0;whiteSpace=wrap;html=1;" parent="1" vertex="1">
          <mxGeometry x="262.75" y="90" width="302.5" height="20" as="geometry" />
        </mxCell>
        <mxCell id="ycLoNEdC7tj26TH-Vazr-10" value="" style="endArrow=none;html=1;rounded=0;entryX=0.5;entryY=1;entryDx=0;entryDy=0;exitX=0.5;exitY=0;exitDx=0;exitDy=0;" parent="1" source="ycLoNEdC7tj26TH-Vazr-8" target="ycLoNEdC7tj26TH-Vazr-3" edge="1">
          <mxGeometry width="50" height="50" relative="1" as="geometry">
            <mxPoint x="390" y="150" as="sourcePoint" />
            <mxPoint x="440" y="100" as="targetPoint" />
          </mxGeometry>
        </mxCell>
        <mxCell id="ycLoNEdC7tj26TH-Vazr-12" value="legajoAlumno != 0" style="swimlane;whiteSpace=wrap;html=1;startSize=20;fillColor=#e1d5e7;strokeColor=#9673a6;" parent="1" vertex="1">
          <mxGeometry x="114" y="180" width="600" height="620" as="geometry">
            <mxRectangle x="114" y="180" width="140" height="30" as="alternateBounds" />
          </mxGeometry>
        </mxCell>
        <mxCell id="ycLoNEdC7tj26TH-Vazr-19" value="&lt;b&gt;codigoCarreraActual = codigoCarrera&lt;/b&gt;" style="rounded=0;whiteSpace=wrap;html=1;fillColor=#fff2cc;strokeColor=#d6b656;" parent="ycLoNEdC7tj26TH-Vazr-12" vertex="1">
          <mxGeometry x="186.5" y="115" width="227" height="20" as="geometry" />
        </mxCell>
        <mxCell id="ycLoNEdC7tj26TH-Vazr-20" value="codigoCarrera == codigoCarreraActual &amp;amp;&amp;amp; legajoAlumno != 0" style="swimlane;whiteSpace=wrap;html=1;fillColor=#e1d5e7;strokeColor=#9673a6;" parent="ycLoNEdC7tj26TH-Vazr-12" vertex="1">
          <mxGeometry x="20" y="149" width="560" height="420" as="geometry" />
        </mxCell>
        <mxCell id="ycLoNEdC7tj26TH-Vazr-21" value="codigoMateria, modalidad,horario" style="shape=trapezoid;perimeter=trapezoidPerimeter;whiteSpace=wrap;html=1;fixedSize=1;fillColor=#f8cecc;strokeColor=#b85450;direction=west;" parent="ycLoNEdC7tj26TH-Vazr-20" vertex="1">
          <mxGeometry x="178" y="50" width="204" height="20" as="geometry" />
        </mxCell>
        <mxCell id="ycLoNEdC7tj26TH-Vazr-27" style="edgeStyle=orthogonalEdgeStyle;rounded=0;orthogonalLoop=1;jettySize=auto;html=1;entryX=0.425;entryY=-0.157;entryDx=0;entryDy=0;entryPerimeter=0;endArrow=none;endFill=0;" parent="ycLoNEdC7tj26TH-Vazr-20" edge="1">
          <mxGeometry relative="1" as="geometry">
            <mxPoint x="196" y="405.0000000000001" as="targetPoint" />
            <mxPoint x="245" y="368.14" as="sourcePoint" />
            <Array as="points">
              <mxPoint x="196" y="368.14" />
            </Array>
          </mxGeometry>
        </mxCell>
        <mxCell id="ycLoNEdC7tj26TH-Vazr-42" style="edgeStyle=orthogonalEdgeStyle;rounded=0;orthogonalLoop=1;jettySize=auto;html=1;exitX=1;exitY=0.5;exitDx=0;exitDy=0;entryX=0.5;entryY=1;entryDx=0;entryDy=0;endArrow=none;endFill=0;" parent="ycLoNEdC7tj26TH-Vazr-20" source="ycLoNEdC7tj26TH-Vazr-23" target="ycLoNEdC7tj26TH-Vazr-24" edge="1">
          <mxGeometry relative="1" as="geometry">
            <Array as="points">
              <mxPoint x="335" y="369" />
              <mxPoint x="335" y="412" />
              <mxPoint x="196" y="412" />
            </Array>
          </mxGeometry>
        </mxCell>
        <mxCell id="ycLoNEdC7tj26TH-Vazr-23" value="&lt;font style=&quot;font-size: 8px;&quot;&gt;legajoAlumno != 0&lt;/font&gt;" style="rhombus;whiteSpace=wrap;html=1;fillColor=#d5e8d4;strokeColor=#82b366;" parent="ycLoNEdC7tj26TH-Vazr-20" vertex="1">
          <mxGeometry x="245" y="335" width="70" height="65" as="geometry" />
        </mxCell>
        <mxCell id="ycLoNEdC7tj26TH-Vazr-24" value="codigoCarrera" style="shape=trapezoid;perimeter=trapezoidPerimeter;whiteSpace=wrap;html=1;fixedSize=1;fillColor=#f8cecc;strokeColor=#b85450;direction=west;" parent="ycLoNEdC7tj26TH-Vazr-20" vertex="1">
          <mxGeometry x="136" y="380" width="120" height="20" as="geometry" />
        </mxCell>
        <mxCell id="ycLoNEdC7tj26TH-Vazr-33" value="legajoAlumno" style="shape=trapezoid;perimeter=trapezoidPerimeter;whiteSpace=wrap;html=1;fixedSize=1;fillColor=#f8cecc;strokeColor=#b85450;direction=west;" parent="ycLoNEdC7tj26TH-Vazr-20" vertex="1">
          <mxGeometry x="216" y="310" width="130" height="20" as="geometry" />
        </mxCell>
        <mxCell id="ycLoNEdC7tj26TH-Vazr-16" value="" style="endArrow=none;html=1;rounded=0;entryX=0.5;entryY=1;entryDx=0;entryDy=0;exitX=0.5;exitY=0;exitDx=0;exitDy=0;" parent="1" source="ycLoNEdC7tj26TH-Vazr-14" target="ycLoNEdC7tj26TH-Vazr-8" edge="1">
          <mxGeometry width="50" height="50" relative="1" as="geometry">
            <mxPoint x="390" y="300" as="sourcePoint" />
            <mxPoint x="440" y="250" as="targetPoint" />
          </mxGeometry>
        </mxCell>
        <mxCell id="ycLoNEdC7tj26TH-Vazr-14" value="legajoAlumno" style="shape=trapezoid;perimeter=trapezoidPerimeter;whiteSpace=wrap;html=1;fixedSize=1;fillColor=#f8cecc;strokeColor=#b85450;size=21;direction=west;" parent="1" vertex="1">
          <mxGeometry x="359" y="120" width="110" height="20" as="geometry" />
        </mxCell>
        <mxCell id="ycLoNEdC7tj26TH-Vazr-15" value="codigoCarrera" style="shape=trapezoid;perimeter=trapezoidPerimeter;whiteSpace=wrap;html=1;fixedSize=1;fillColor=#f8cecc;strokeColor=#b85450;direction=west;" parent="1" vertex="1">
          <mxGeometry x="363.5" y="150" width="101" height="20" as="geometry" />
        </mxCell>
        <mxCell id="ycLoNEdC7tj26TH-Vazr-17" value="" style="endArrow=none;html=1;rounded=0;entryX=0.5;entryY=1;entryDx=0;entryDy=0;exitX=0.5;exitY=0;exitDx=0;exitDy=0;" parent="1" edge="1">
          <mxGeometry width="50" height="50" relative="1" as="geometry">
            <mxPoint x="414" y="150" as="sourcePoint" />
            <mxPoint x="414" y="140" as="targetPoint" />
          </mxGeometry>
        </mxCell>
        <mxCell id="ycLoNEdC7tj26TH-Vazr-18" value="" style="endArrow=none;html=1;rounded=0;entryX=0.5;entryY=1;entryDx=0;entryDy=0;" parent="1" edge="1">
          <mxGeometry width="50" height="50" relative="1" as="geometry">
            <mxPoint x="414" y="180" as="sourcePoint" />
            <mxPoint x="414" y="170" as="targetPoint" />
          </mxGeometry>
        </mxCell>
        <mxCell id="ycLoNEdC7tj26TH-Vazr-37" value="" style="endArrow=none;html=1;rounded=0;exitX=0.5;exitY=0;exitDx=0;exitDy=0;" parent="1" source="ycLoNEdC7tj26TH-Vazr-23" edge="1">
          <mxGeometry width="50" height="50" relative="1" as="geometry">
            <mxPoint x="390" y="540" as="sourcePoint" />
            <mxPoint x="414" y="660" as="targetPoint" />
          </mxGeometry>
        </mxCell>
        <mxCell id="ycLoNEdC7tj26TH-Vazr-43" value="" style="endArrow=none;html=1;rounded=0;exitX=0.5;exitY=0;exitDx=0;exitDy=0;" parent="1" source="ycLoNEdC7tj26TH-Vazr-2" edge="1">
          <mxGeometry width="50" height="50" relative="1" as="geometry">
            <mxPoint x="390" y="790" as="sourcePoint" />
            <mxPoint x="402" y="800" as="targetPoint" />
          </mxGeometry>
        </mxCell>
      </root>
    </mxGraphModel>
  </diagram>
</mxfile>
